<svg xmlns="http://www.w3.org/2000/svg" width="306" height="306" viewBox="0 0 306 306" fill="#69727d" aria-hidden="true">
  <path d="M292.658 93.2095C278.005 58.399 250.94 30.2751 216.717 14.2978C182.494 -1.67937 143.556 -4.36988 107.46 6.74866C71.3654 17.8672 40.6895 42.0015 21.3884 74.466C2.08726 106.93 -4.46197 145.409 3.01218 182.43C10.4863 219.452 31.4506 252.376 61.8348 274.81C92.2191 297.243 129.855 307.587 167.437 303.831C205.018 300.075 239.864 282.489 265.208 254.486C290.552 226.483 304.586 190.062 304.586 152.293C304.615 131.998 300.558 111.904 292.658 93.2095ZM298.521 174.854C298.417 179.015 298.083 183.166 297.522 187.29C294.307 193.292 289.601 199.049 283.52 204.443C284.398 196.577 284.557 188.647 283.996 180.753C283.844 178.533 283.642 176.314 283.39 174.094C284.492 173.136 285.554 172.165 286.577 171.182C291.214 166.709 294.916 162.036 297.664 157.233C298.382 163.077 298.668 168.967 298.521 174.854ZM7.82129 158.582C7.86972 158.153 7.9242 157.723 7.97566 157.293C10.7208 162.078 14.4134 166.736 19.0321 171.192C20.0551 172.178 21.1205 173.151 22.2282 174.109C21.0276 184.192 20.9911 194.379 22.1193 204.47C16.0659 199.11 11.3746 193.389 8.15725 187.427C6.85242 177.863 6.73957 168.174 7.82129 158.582ZM19.9007 80.8637C22.9498 75.1815 26.5044 69.7854 30.5213 64.7407C28.7635 68.8067 27.8373 73.1835 27.7973 77.6131C25.5212 80.4763 23.3753 83.4193 21.3596 86.4419C17.7288 91.8893 14.5329 97.6143 11.8014 103.564C12.1238 99.07 13.2515 94.6709 15.1307 90.5763H15.1004C16.5795 87.2712 18.1735 84.0316 19.8826 80.8577L19.9007 80.8637ZM248.414 39.7646C245.204 37.7045 241.884 35.7916 238.453 34.0261C232.855 31.1631 227.053 28.716 221.095 26.7046C219.594 24.0192 217.679 21.5872 215.42 19.4981C223.883 21.6566 231.992 25.0203 239.497 29.4861C243.245 32.7397 246.238 36.1871 248.42 39.7586L248.414 39.7646ZM285.697 80.8637L285.727 80.8486C287.434 84.0206 289.028 87.2601 290.509 90.5672H290.479C292.358 94.6618 293.486 99.061 293.808 103.555C291.075 97.6061 287.878 91.8822 284.247 86.4358C282.229 83.4091 280.083 80.4662 277.809 77.607C277.767 73.2201 276.856 68.885 275.127 64.8527C279.127 69.8593 282.665 75.2182 285.697 80.8637ZM289.531 122.959C285.325 112.682 280.002 102.9 273.656 93.7876C275.05 91.1638 276.121 88.3813 276.847 85.5006C277.373 83.3906 277.683 81.2326 277.773 79.0598C279.778 81.6265 281.68 84.2576 283.478 86.9534C287.49 92.9667 290.966 99.3209 293.866 105.943C293.812 110.988 292.721 115.968 290.66 120.574C290.309 121.369 289.933 122.162 289.531 122.953V122.959ZM283.091 180.822C283.669 188.995 283.467 197.204 282.485 205.338C276.193 210.741 268.508 215.768 259.546 220.293C259.592 219.809 259.646 219.328 259.688 218.84C260.504 209.138 260.453 199.381 259.534 189.688C268.39 185.244 276.126 180.256 282.537 174.824C282.769 176.823 282.953 178.821 283.091 180.816V180.822ZM260.412 257.485C255.375 261.849 249.337 265.841 242.488 269.404C244.409 266.787 246.159 264.049 247.724 261.205C249.872 257.286 251.72 253.209 253.251 249.01C260.651 245.312 267.204 241.22 272.818 236.776C273.29 236.405 273.754 236.03 274.21 235.65C270.696 243.559 266.048 250.912 260.412 257.479V257.485ZM223.52 285.466C217.693 288.331 211.643 290.718 205.429 292.603C209.14 289.665 212.469 285.783 215.417 280.957C223.621 278.625 231.618 275.621 239.328 271.977C234.89 277.365 229.539 281.931 223.52 285.466ZM153.253 300.064C153.253 297.643 153.253 294.047 153.253 289.359C163.663 289.348 174.063 288.674 184.388 287.34C184.243 287.767 184.085 288.187 183.94 288.599C182.348 292.895 180.564 296.157 178.589 298.384C170.188 299.49 161.725 300.051 153.253 300.064ZM127.024 298.387C124.835 295.92 122.886 292.198 121.206 287.34C131.531 288.674 141.931 289.348 152.342 289.359V300.064C143.875 300.05 135.418 299.49 127.024 298.387ZM82.1804 285.53C76.1745 281.987 70.833 277.423 66.3964 272.043C74.0876 275.67 82.0634 278.661 90.2435 280.984C93.1824 285.784 96.545 289.695 100.274 292.649C94.0603 290.769 88.0093 288.388 82.1804 285.53ZM31.4777 235.717C31.9075 236.071 32.3373 236.422 32.7792 236.77C38.4027 241.22 44.9676 245.318 52.3799 249.019V249.05C55.2098 256.725 58.8479 263.559 63.2032 269.452C56.369 265.905 50.3399 261.931 45.3035 257.588C39.6669 251.001 35.0103 243.634 31.4777 235.717ZM23.0545 174.827C29.4771 180.275 37.2193 185.26 46.0874 189.703C45.104 199.874 45.0888 210.116 46.042 220.29C37.0952 215.771 29.4196 210.756 23.1332 205.366C21.9149 195.224 21.8885 184.974 23.0545 174.827ZM27.8245 79.0477C27.9142 81.2205 28.2245 83.3785 28.7507 85.4885C29.4801 88.3813 30.5573 91.1751 31.959 93.8088C25.6115 102.913 20.2839 112.687 16.072 122.956C15.6684 122.163 15.2901 121.365 14.937 120.561C12.8767 115.956 11.7857 110.976 11.7318 105.931C14.6314 99.3088 18.1072 92.9546 22.1193 86.9413C23.9111 84.2516 25.8128 81.6204 27.8245 79.0477ZM52.0106 55.013C52.0106 55.0735 52.0106 55.134 52.0106 55.1915C52.2177 59.3108 53.3329 63.3334 55.2764 66.9713C47.361 74.3341 40.1737 82.4427 33.8143 91.1847C33.3845 91.7779 32.9598 92.3731 32.5401 92.9704C31.2758 90.5265 30.2978 87.9448 29.6254 85.2766C29.0261 82.8726 28.7172 80.4054 28.7053 77.9279C35.5465 69.4005 43.3689 61.7091 52.0106 55.013ZM82.0321 36.8257C82.1595 39.6947 82.9147 42.5008 84.2446 45.0462C74.1442 51.1844 64.6778 58.3098 55.9846 66.3176C54.164 62.8626 53.1178 59.0525 52.9186 55.1522C52.9186 54.8768 52.9186 54.5983 52.9035 54.3229C60.5483 48.4873 68.7285 43.3888 77.3347 39.0957C78.8874 38.3027 80.4613 37.5552 82.0321 36.8257ZM228.263 39.0957C236.863 43.3896 245.039 48.4881 252.679 54.3229C252.679 54.5983 252.679 54.8768 252.679 55.1522C252.487 59.0352 251.454 62.8303 249.652 66.2752C240.957 58.2727 231.483 51.1609 221.371 45.0462C222.701 42.5008 223.456 39.6947 223.583 36.8257C225.136 37.5552 226.71 38.3027 228.263 39.0957ZM276.892 77.9279C276.884 80.4049 276.579 82.8721 275.984 85.2766C275.313 87.9334 274.34 90.5047 273.084 92.9401C269.163 87.3776 264.901 82.0628 260.324 77.0259C257.134 73.5311 253.805 70.1695 250.336 66.9411C252.268 63.3128 253.376 59.3031 253.581 55.1976C253.581 55.1401 253.581 55.0796 253.581 55.019C262.224 61.7129 270.049 69.4023 276.892 77.9279ZM260.811 108.086C254.869 97.8642 248.03 88.1913 240.375 79.1809C244.479 75.5913 247.676 71.7626 249.897 67.7643C253.279 70.9262 256.525 74.2172 259.634 77.6373C264.292 82.7598 268.621 88.1722 272.594 93.8421C269.94 98.718 266.087 103.409 261.066 107.865C260.981 107.937 260.89 108.01 260.808 108.086H260.811ZM258.799 218.756C258.738 219.434 258.668 220.102 258.599 220.771C257.443 221.346 256.264 221.912 255.064 222.469C246.447 226.43 237.543 229.735 228.429 232.357C229.123 222.137 229.123 211.881 228.429 201.661C229.31 201.407 230.184 201.15 231.056 200.883C240.538 198.054 249.774 194.457 258.671 190.126C259.554 199.647 259.596 209.227 258.796 218.756H258.799ZM53.1154 248.372C50.1765 240.29 48.1698 231.377 47.1195 221.84C48.1183 222.33 49.1272 222.814 50.1462 223.293C58.9122 227.321 67.9732 230.674 77.25 233.323C77.9704 242.76 79.3687 251.462 81.3965 259.234C75.5006 257.518 69.8437 255.584 64.4835 253.444C60.5004 251.85 56.71 250.159 53.1123 248.372H53.1154ZM46.9591 190.126C55.8461 194.452 65.0706 198.046 74.5411 200.874C75.4249 201.143 76.3117 201.404 77.2046 201.664C77.0371 204.219 76.909 206.754 76.8202 209.27C76.5354 216.964 76.6567 224.667 77.1834 232.348C68.069 229.727 59.1654 226.422 50.5488 222.46C49.3381 221.903 48.1587 221.336 47.0106 220.759C46.0131 210.574 45.9958 200.315 46.9591 190.126ZM44.5378 107.856C39.5256 103.409 35.6787 98.7271 33.0365 93.8633C33.5389 93.1429 34.0494 92.4246 34.5679 91.7083C40.8449 83.0808 47.9334 75.0741 55.7365 67.7976C57.958 71.7837 61.1451 75.6004 65.2402 79.1779C57.5897 88.1958 50.7559 97.8759 44.8193 108.104L44.5378 107.856ZM121.594 16.3261C128.992 16.6673 136.347 17.6404 143.579 19.2347C144.524 19.4406 145.465 19.6585 146.409 19.8824C137.176 19.0032 127.884 18.9414 118.64 19.6978C119.456 18.4371 120.451 17.3014 121.594 16.3261ZM143.286 7.94226C144.652 9.4054 145.917 10.9596 147.072 12.5942C148.567 14.7078 149.952 16.897 151.222 19.153C147.422 15.9885 143.324 13.2009 138.985 10.8297C138.004 10.303 137.03 9.81375 136.061 9.36176C138.439 8.74369 140.851 8.26966 143.286 7.94226ZM169.597 9.37689C165.227 11.4456 161.088 13.9719 157.251 16.9133C156.282 17.6457 155.311 18.4266 154.339 19.2105C157.024 14.4738 159.696 10.6905 162.311 7.94226C164.767 8.27321 167.199 8.75229 169.597 9.37689ZM186.973 19.7251C180.485 19.1944 173.97 19.0691 167.466 19.3498C164.641 19.4708 161.822 19.6676 159.009 19.94C167.216 17.9387 175.598 16.7385 184.037 16.3564C185.172 17.3325 186.161 18.467 186.973 19.7251ZM215.405 134.278C218.55 145.208 221.089 156.01 223.045 166.54C212.157 169.622 201.062 171.918 189.845 173.41C189.046 164.99 188.068 156.409 186.909 147.741C186.479 144.513 186.028 141.312 185.556 138.14C195.426 136.821 205.188 134.798 214.77 132.087C214.986 132.819 215.197 133.549 215.405 134.275V134.278ZM227.479 232.645C215.898 235.927 204.096 238.368 192.163 239.951C192.53 230.348 192.53 220.045 192.163 209.228C204.104 207.64 215.916 205.201 227.509 201.93C228.193 212.152 228.183 222.409 227.479 232.63V232.645ZM77.7373 209.312C77.822 206.871 77.9451 204.409 78.1065 201.927C89.6999 205.195 101.512 207.63 113.452 209.216C113.292 214.028 113.201 218.765 113.183 223.399C113.158 229.149 113.249 234.667 113.446 239.936C101.509 238.355 89.7027 235.912 78.1187 232.627C77.5747 224.868 77.4474 217.085 77.7373 209.312ZM134.941 70.5125C140.718 71.2543 146.536 71.6324 152.36 71.6445V103.679C144.005 103.666 135.66 103.122 127.375 102.05C129.427 92.1804 131.679 82.6071 134.112 73.518C134.378 72.5051 134.648 71.5033 134.92 70.5125H134.941ZM127.251 38.215C129.397 39.256 131.624 40.1224 133.909 40.8058C128.363 48.0812 123.291 55.7071 118.727 63.6359C118.282 64.4067 117.839 65.1816 117.399 65.9604C112.721 64.6192 108.164 62.8848 103.779 60.7757C107.403 56.6696 111.132 52.7632 114.965 49.0565C118.989 45.1703 123.084 41.5564 127.251 38.215ZM152.342 22.9031V42.5159C149.566 42.5025 146.794 42.3256 144.039 41.9862C146.433 35.469 149.205 29.0972 152.342 22.9031ZM143.113 41.8651C140.53 41.5114 137.972 40.9907 135.456 40.3064C140.221 34.1262 145.504 28.3637 151.249 23.0816C148.187 29.1852 145.471 35.4562 143.113 41.8651ZM153.241 22.897C156.378 29.0929 159.151 35.4668 161.546 41.9862C158.79 42.3256 156.017 42.5025 153.241 42.5159V22.897ZM154.354 23.0847C159.675 27.9273 164.963 33.678 170.129 40.3064C167.617 40.9902 165.063 41.5108 162.484 41.8651C160.131 35.4578 157.42 29.1878 154.363 23.0847H154.354ZM168.123 36.3415C164.31 31.6767 160.191 27.2712 155.792 23.1543C158.363 24.5344 160.938 26.0306 163.519 27.6428C168.391 30.6935 173.091 34.0118 177.596 37.5824C175.492 38.5663 173.316 39.3859 171.086 40.034C170.105 38.7931 169.121 37.543 168.132 36.3415H168.123ZM134.515 40.0401C132.291 39.3945 130.12 38.5779 128.022 37.5975C134.842 32.1466 142.135 27.316 149.814 23.1634C144.266 28.3651 139.149 34.0092 134.515 40.0401ZM119.523 64.093C124.126 56.0975 129.249 48.4134 134.86 41.0903C137.47 41.8131 140.127 42.3602 142.811 42.7277C139.854 50.7212 136.987 59.7043 134.269 69.4925C128.875 68.7749 123.537 67.6806 118.295 66.2177C118.698 65.5074 119.108 64.7992 119.523 64.093ZM143.719 42.8609C146.58 43.2209 149.461 43.4089 152.345 43.4239V70.7365C146.603 70.7233 140.867 70.3513 135.171 69.6227C137.91 59.7406 140.78 50.7787 143.719 42.8609ZM152.342 104.575V139.409C141.892 139.396 131.454 138.713 121.091 137.363C122.838 125.68 124.881 114.118 127.187 102.931C135.527 104.013 143.928 104.562 152.339 104.575H152.342ZM152.342 140.314V175.859C140.415 175.849 128.502 175.071 116.675 173.528C117.78 161.833 119.218 149.99 120.958 138.255C131.363 139.613 141.845 140.3 152.339 140.314H152.342ZM152.342 176.767V210.917C139.649 210.907 126.97 210.075 114.384 208.426C114.769 197.418 115.516 186.004 116.591 174.433C128.444 175.977 140.385 176.756 152.339 176.767H152.342ZM153.25 176.767C165.214 176.757 177.166 175.976 189.031 174.43C190.123 186.146 190.847 197.539 191.24 208.423C178.644 210.073 165.954 210.906 153.25 210.917V176.767ZM153.25 175.859V140.314C163.753 140.302 174.245 139.614 184.66 138.255C185.128 141.435 185.579 144.636 186.013 147.856C187.172 156.527 188.15 165.108 188.946 173.525C177.109 175.071 165.184 175.85 153.247 175.859H153.25ZM153.25 139.409V104.575C161.672 104.563 170.085 104.013 178.438 102.928C180.714 113.969 182.757 125.507 184.527 137.359C174.155 138.712 163.707 139.397 153.247 139.409H153.25ZM153.25 103.694V71.6445C159.082 71.6316 164.908 71.2525 170.692 70.5095C173.416 80.3855 175.953 90.9607 178.259 102.047C169.965 103.121 161.61 103.666 153.247 103.679L153.25 103.694ZM153.25 70.7516C153.25 60.7092 153.25 51.5626 153.25 43.439C156.135 43.4189 159.016 43.2259 161.879 42.8609C161.921 42.9759 161.966 43.0879 162.009 43.2029C164.972 51.2327 167.796 60.1008 170.444 69.6197C164.741 70.3509 158.997 70.7239 153.247 70.7365L153.25 70.7516ZM162.862 42.9063C162.844 42.8518 162.823 42.8004 162.805 42.7489C165.483 42.3749 168.133 41.8218 170.738 41.0933C176.841 49.0699 182.376 57.4653 187.303 66.2177C182.071 67.6805 176.743 68.7768 171.358 69.4986C168.686 59.9071 165.844 50.9754 162.859 42.8912L162.862 42.9063ZM171.685 40.8209C173.98 40.1342 176.217 39.2648 178.374 38.221C186.838 45.0436 194.694 52.587 201.855 60.7667C197.462 62.878 192.897 64.6124 188.211 65.9513C183.295 57.1936 177.772 48.7912 171.682 40.8058L171.685 40.8209ZM179.267 37.7731C181.049 36.8541 182.729 35.7471 184.276 34.471C187.303 36.1013 190.318 37.8366 193.323 39.6769C200.187 43.906 206.77 48.5758 213.029 53.657C209.849 56.269 206.382 58.5091 202.693 60.3339C195.545 52.151 187.706 44.5979 179.264 37.7579L179.267 37.7731ZM178.501 37.1677C173.866 33.4642 169.023 30.0274 163.997 26.8741C161.76 25.4757 159.525 24.1642 157.293 22.9394C166.299 25.8597 175.032 29.5654 183.389 34.014C181.874 35.2268 180.234 36.2758 178.498 37.1435L178.501 37.1677ZM127.126 37.1677C125.388 36.2989 123.747 35.2488 122.229 34.0351C124.132 33.0263 126.049 32.0557 127.98 31.1235C134.551 27.9396 141.333 25.2093 148.277 22.9515C140.832 27.0713 133.754 31.8235 127.123 37.1556L127.126 37.1677ZM126.361 37.7731C122.291 41.056 118.284 44.6012 114.339 48.4088C110.44 52.176 106.647 56.1611 102.959 60.3641C99.2609 58.5412 95.7847 56.2999 92.5982 53.6843C101.564 46.4076 111.191 39.9844 121.352 34.4982C122.898 35.7639 124.577 36.8598 126.358 37.767L126.361 37.7731ZM102.344 61.0784C94.7639 69.8119 87.8536 79.1049 81.672 88.8783C75.773 85.9092 70.7033 82.6283 66.5174 79.0719L67.1409 78.3365C74.6721 69.612 82.9457 61.5571 91.8688 54.2624C95.0883 56.9219 98.602 59.2038 102.341 61.0633L102.344 61.0784ZM103.182 61.4961C107.613 63.6507 112.219 65.4246 116.951 66.7988C111.516 76.544 106.647 86.594 102.368 96.899C96.0501 95.0876 89.8848 92.7801 83.9299 89.9982C83.4456 89.7682 82.9664 89.5361 82.4922 89.3021C88.6749 79.5227 95.5905 70.2263 103.179 61.4931L103.182 61.4961ZM117.844 67.0591C123.149 68.5543 128.553 69.6729 134.015 70.4066C133.753 71.363 133.491 72.3265 133.228 73.2971C130.786 82.4194 128.525 92.0291 126.467 101.938C118.622 100.895 110.861 99.2972 103.243 97.1563C107.525 86.846 112.399 76.7918 117.841 67.044L117.844 67.0591ZM126.285 102.825C123.982 114.024 121.939 125.577 120.192 137.26C110.369 135.952 100.652 133.944 91.1152 131.252C94.4654 119.97 98.3972 108.87 102.895 97.9947C110.567 100.152 118.382 101.761 126.282 102.81L126.285 102.825ZM120.053 138.137C118.316 149.869 116.878 161.712 115.773 173.407C104.559 171.919 93.4655 169.626 82.58 166.546C84.746 154.931 87.508 143.436 90.8549 132.105C100.431 134.81 110.189 136.826 120.053 138.137ZM115.689 174.312C114.611 185.88 113.873 197.294 113.476 208.302C101.544 206.716 89.7409 204.276 78.158 201.001C78.9442 189.743 80.366 178.539 82.4165 167.442C93.3286 170.525 104.448 172.821 115.689 174.312ZM114.085 223.402C114.103 218.807 114.193 214.11 114.351 209.337C126.947 210.983 139.636 211.814 152.339 211.825V242.542C139.639 242.535 126.953 241.708 114.36 240.066C114.158 234.784 114.066 229.229 114.085 223.402ZM152.342 243.45V268.898C140.378 268.884 128.428 268.092 116.566 266.529C115.507 259.025 114.772 250.466 114.387 240.983C126.973 242.619 139.65 243.443 152.342 243.45ZM153.25 243.45C165.945 243.442 178.627 242.615 191.216 240.974C191.014 245.894 190.712 250.614 190.308 255.136C189.951 259.172 189.522 262.967 189.022 266.522C177.159 268.086 165.206 268.878 153.241 268.892C153.25 261.444 153.25 252.921 153.247 243.45H153.25ZM153.25 242.542V211.825C165.964 211.815 178.664 210.983 191.271 209.334C191.628 220.157 191.625 230.46 191.252 240.063C178.65 241.707 165.955 242.535 153.247 242.542H153.25ZM192.145 208.286C191.764 197.39 191.025 186.01 189.933 174.297C201.181 172.808 212.308 170.51 223.226 167.42C225.274 178.52 226.689 189.726 227.463 200.986C215.881 204.262 204.078 206.702 192.145 208.286ZM185.426 137.229C183.671 125.389 181.613 113.854 179.336 102.807C187.24 101.749 195.059 100.131 202.733 97.9644C207.234 108.841 211.166 119.945 214.512 131.23C204.971 133.924 195.25 135.933 185.423 137.241L185.426 137.229ZM179.155 101.923C176.855 90.8427 174.312 80.2705 171.588 70.3915C177.048 69.6568 182.449 68.5372 187.751 67.0409C193.202 76.78 198.083 86.8272 202.369 97.1321C194.755 99.2776 186.997 100.879 179.155 101.923ZM188.683 66.7746C193.421 65.3973 198.033 63.6182 202.469 61.4567C210.059 70.1861 216.966 79.4862 223.129 89.2748C222.648 89.5109 222.164 89.747 221.67 89.9831C215.728 92.7597 209.576 95.064 203.271 96.8748C198.995 86.5678 194.124 76.5175 188.683 66.7746ZM203.308 61.0239C207.037 59.1654 210.542 56.8856 213.753 54.2291C222.667 61.5365 230.931 69.6025 238.453 78.3365L239.08 79.0689C234.897 82.6222 229.836 85.9001 223.946 88.8662C217.786 79.0769 210.887 69.7731 203.308 61.036V61.0239ZM239.143 77.7311C231.621 69.0015 223.36 60.9368 214.452 53.6268C217.029 51.4098 219.216 48.7764 220.923 45.8361C231.038 51.9544 240.511 59.0768 249.198 67.0954C247.876 69.4702 246.303 71.6964 244.507 73.7359C243.035 75.4153 241.452 76.9947 239.77 78.4636L239.143 77.7311ZM213.719 53.0426C207.385 47.8975 200.722 43.1699 193.774 38.8899C190.872 37.1102 187.943 35.4244 184.987 33.8324C186.18 32.7565 187.201 31.504 188.014 30.1186C196.463 33.1551 204.673 36.8164 212.578 41.0721C215.143 42.4503 217.665 43.8839 220.145 45.373C218.623 48.0819 216.455 50.6546 213.728 53.0547L213.719 53.0426ZM184.137 33.3693C175.942 28.9869 167.388 25.3133 158.567 22.3885C168.287 24.0344 177.847 26.5133 187.142 29.7978C186.335 31.1402 185.324 32.3491 184.146 33.3814L184.137 33.3693ZM159.848 21.6863C169.496 22.0772 179.095 23.2769 188.544 25.2729C188.48 26.565 188.151 27.8301 187.578 28.9897C178.556 25.7954 169.283 23.3566 159.857 21.6984L159.848 21.6863ZM159.69 20.7783C162.293 20.5423 164.895 20.3667 167.496 20.2517C174.167 19.9626 180.85 20.1042 187.502 20.6754C188.092 21.8184 188.442 23.0698 188.531 24.3528C179.037 22.3593 169.393 21.1647 159.699 20.7814L159.69 20.7783ZM157.572 19.3467C161.573 17.5526 165.683 16.013 169.878 14.7371C172.735 13.8755 175.56 13.1693 178.353 12.6185C179.987 13.4238 181.54 14.3847 182.99 15.4877C174.414 15.9483 165.903 17.2417 157.578 19.3498L157.572 19.3467ZM169.618 13.8685C164.931 15.2983 160.35 17.053 155.907 19.1197C156.537 18.6173 157.169 18.124 157.799 17.6457C161.868 14.5215 166.286 11.8807 170.965 9.77641C173.032 10.3727 175.055 11.1141 177.018 11.995C174.572 12.5075 172.108 13.133 169.624 13.8715L169.618 13.8685ZM153.244 19.3165V7.31573C155.918 7.33059 158.59 7.49632 161.246 7.81211C158.625 10.6663 155.943 14.5222 153.25 19.3346L153.244 19.3165ZM152.336 19.2801C149.654 14.4859 146.987 10.642 144.369 7.77881C147.017 7.47553 149.68 7.32093 152.345 7.31573L152.336 19.2801ZM149.675 19.0683C142.945 15.9144 135.885 13.5206 128.625 11.9314C130.587 11.0511 132.61 10.3127 134.678 9.72194C139.639 11.9193 144.663 15.067 149.684 19.0864L149.675 19.0683ZM148.095 19.3467C146.654 18.9866 145.211 18.6446 143.764 18.3298C136.808 16.7986 129.738 15.8349 122.626 15.4484C124.078 14.3468 125.631 13.3861 127.266 12.5791C134.445 14.0484 141.436 16.3248 148.104 19.3649L148.095 19.3467ZM146.158 20.7541C136.371 21.1258 126.633 22.3246 117.048 24.3377C117.138 23.0457 117.493 21.7859 118.089 20.6361C127.433 19.84 136.831 19.8855 146.167 20.7723L146.158 20.7541ZM146.019 21.6621C136.499 23.3358 127.134 25.7937 118.019 29.0109C117.434 27.843 117.099 26.5657 117.036 25.2608C126.582 23.2548 136.28 22.0591 146.028 21.6863L146.019 21.6621ZM146.857 22.443C140.266 24.6504 133.824 27.281 127.571 30.3184C125.529 31.3051 123.497 32.3372 121.476 33.4147C120.29 32.3906 119.269 31.1901 118.449 29.8553C127.697 26.5981 137.203 24.1267 146.866 22.4672L146.857 22.443ZM120.625 33.8293C110.467 39.3339 100.841 45.7689 91.8718 53.0517C89.1478 50.6485 86.9595 48.0668 85.4402 45.3519C87.92 43.8607 90.4422 42.4261 93.0068 41.0479C100.916 36.7971 109.134 33.1457 117.589 30.1247C118.408 31.5161 119.435 32.7737 120.634 33.8535L120.625 33.8293ZM91.1606 53.6389C82.2441 60.9391 73.9748 68.9957 66.4448 77.719C66.236 77.9612 66.0302 78.2094 65.8213 78.4515C64.1413 76.9909 62.5609 75.4195 61.0906 73.748C59.3053 71.7204 57.7408 69.5086 56.4235 67.1499C65.1082 59.127 74.5721 51.9911 84.6744 45.8482C86.3864 48.7986 88.5821 51.4404 91.1696 53.6631L91.1606 53.6389ZM65.9333 79.7711C70.1373 83.3335 75.2494 86.6477 81.2028 89.6502C76.9655 96.4148 72.9945 103.455 69.3807 110.704C67.6736 114.124 66.0533 117.574 64.5198 121.055C57.156 117.365 50.8 113.249 45.5215 108.709C51.4505 98.4747 58.2816 88.7903 65.9333 79.7711ZM70.1706 111.106C73.7845 103.86 77.7373 96.8203 81.9958 90.0587C82.5043 90.3069 83.0128 90.5582 83.5334 90.8033C89.4967 93.5907 95.67 95.9052 101.996 97.7253C97.5035 108.603 93.5737 119.704 90.2223 130.985C85.54 129.626 80.994 128.101 76.6174 126.409C72.6222 124.865 68.85 123.216 65.3007 121.46C66.8484 117.984 68.4717 114.532 70.1706 111.106ZM76.3027 127.256C80.7004 128.957 85.2707 130.489 89.9771 131.857C86.6313 143.186 83.8694 154.679 81.7022 166.291C78.8773 165.47 76.112 164.602 73.4061 163.685C66.5196 161.378 59.7929 158.619 53.2697 155.426C56.337 144.108 60.239 133.033 64.9436 122.293C68.513 124.048 72.3014 125.703 76.3087 127.256H76.3027ZM73.1216 164.548C75.8759 165.48 78.6816 166.36 81.5388 167.187C79.4878 178.284 78.0611 189.487 77.2651 200.744C76.4419 200.504 75.6217 200.261 74.8045 200.015C65.2698 197.17 55.9867 193.541 47.0499 189.167C47.2073 187.529 47.3869 185.881 47.5887 184.224C48.765 174.809 50.5853 165.485 53.0367 156.319C59.5457 159.495 66.2549 162.244 73.1216 164.548ZM78.1883 233.595C89.7623 236.856 101.555 239.284 113.476 240.859C113.855 250.257 114.581 258.832 115.64 266.404C104.417 264.904 93.3158 262.606 82.4195 259.528C80.3493 251.768 78.9298 243.057 78.1883 233.595ZM115.773 267.337C116.448 271.983 117.25 276.238 118.177 280.049C118.715 282.268 119.293 284.332 119.911 286.241C110.094 284.925 100.384 282.909 90.8549 280.209C88.7278 276.645 86.9247 272.897 85.4674 269.01C84.4585 266.341 83.5394 263.521 82.7101 260.551C93.5582 263.587 104.607 265.854 115.773 267.337ZM116.7 267.464C128.518 269.009 140.423 269.791 152.342 269.806V288.451C141.821 288.438 131.313 287.745 120.882 286.374C119.203 281.229 117.786 274.873 116.7 267.464ZM153.25 269.806C165.17 269.791 177.078 269.009 188.898 267.464C187.814 274.873 186.416 281.202 184.709 286.383C174.278 287.751 163.77 288.441 153.25 288.451V269.806ZM189.83 267.337C201.001 265.852 212.053 263.584 222.905 260.548C220.823 268.084 218.117 274.701 214.809 280.203C205.264 282.912 195.538 284.935 185.705 286.256C187.372 281.078 188.758 274.749 189.83 267.337ZM189.963 266.401C190.449 262.905 190.868 259.178 191.219 255.221C191.625 250.645 191.927 245.838 192.127 240.856C204.044 239.282 215.833 236.855 227.403 233.592C226.661 243.054 225.245 251.752 223.166 259.522C212.275 262.599 201.18 264.897 189.963 266.398V266.401ZM227.421 242.358C227.802 239.41 228.112 236.397 228.35 233.32C237.623 230.671 246.68 227.319 255.442 223.293C256.473 222.814 257.489 222.328 258.49 221.834C257.434 231.465 255.43 240.33 252.518 248.353C248.91 250.145 245.106 251.842 241.105 253.444C235.75 255.581 230.1 257.512 224.213 259.228C225.635 253.678 226.707 248.043 227.421 242.358ZM230.793 200.015C229.986 200.261 229.179 200.501 228.371 200.735C227.585 189.477 226.159 178.274 224.101 167.178C226.946 166.353 229.74 165.476 232.482 164.548C239.366 162.239 246.091 159.482 252.615 156.294C255.507 167.064 257.505 178.054 258.59 189.152C249.639 193.532 240.342 197.165 230.793 200.015ZM232.185 163.695C229.485 164.611 226.734 165.475 223.931 166.288C221.952 155.671 219.391 144.869 216.277 134.033C216.068 133.307 215.853 132.583 215.638 131.857C220.336 130.492 224.897 128.964 229.289 127.266C233.296 125.716 237.083 124.06 240.651 122.299C245.375 133.027 249.295 144.092 252.376 155.401C245.836 158.605 239.091 161.373 232.185 163.685V163.695ZM228.962 126.418C224.594 128.107 220.054 129.629 215.384 130.988C212.037 119.706 208.111 108.604 203.622 97.7253C209.939 95.9056 216.103 93.5943 222.058 90.8124C222.584 90.5612 223.102 90.31 223.617 90.0557C227.832 96.781 231.766 103.801 235.421 111.115C237.132 114.545 238.754 117.996 240.287 121.466C236.734 123.214 232.959 124.861 228.962 126.409V126.418ZM236.226 110.713C232.594 103.412 228.659 96.3905 224.422 89.6471C230.366 86.6477 235.469 83.3365 239.67 79.7802C247.327 88.7913 254.163 98.4687 260.097 108.697C254.806 113.237 248.447 117.365 241.09 121.061C239.564 117.59 237.945 114.138 236.232 110.704L236.226 110.713ZM220.566 44.571C218.09 43.0859 215.573 41.6523 213.014 40.2701C205.106 36.0138 196.893 32.3496 188.444 29.3075C189.026 28.1081 189.368 26.8064 189.452 25.4757C200.878 27.9451 212.011 31.6146 222.666 36.4232C222.599 39.2641 221.88 42.0516 220.566 44.571ZM189.461 24.5496C189.404 23.2427 189.096 21.9591 188.553 20.7693C199.405 21.7591 210.107 23.9995 220.445 27.4461C221.766 29.9056 222.521 32.6295 222.654 35.4183C212 30.6438 200.875 27.0009 189.461 24.5496ZM188.08 19.8159C187.334 18.5146 186.4 17.3305 185.308 16.3019C188.714 16.1929 192.086 16.2323 195.423 16.4199C201.526 16.7569 207.586 17.632 213.535 19.035C215.981 21.1033 218.087 23.5433 219.776 26.2657C209.489 22.9228 198.856 20.759 188.08 19.8159ZM195.475 15.515C191.806 15.3132 188.096 15.2849 184.343 15.4302C182.932 14.2535 181.406 13.2231 179.787 12.3551C187.657 10.9417 195.254 10.7601 202.43 11.7952C205.805 13.4531 209.005 15.4477 211.979 17.7487C206.545 16.5709 201.026 15.824 195.475 15.515ZM178.477 11.6741C176.469 10.6973 174.391 9.87272 172.26 9.2074C177.708 7.00096 182.965 5.99913 187.95 6.22916C192.011 7.38961 195.984 8.83697 199.839 10.5603C192.702 9.8872 185.505 10.2624 178.477 11.6741ZM170.892 8.79578C168.337 8.07176 165.736 7.51868 163.107 7.14019C165.831 4.47975 168.498 2.97247 171.034 2.71823C175.635 3.32616 180.196 4.20237 184.694 5.34235C180.254 5.59356 175.632 6.75278 170.892 8.79578ZM168.537 2.40648C166.419 3.19947 164.249 4.73399 162.027 6.98886C159.116 6.61667 156.184 6.42259 153.25 6.40773C153.25 3.96824 153.25 2.32173 153.25 1.52269C158.358 1.53592 163.462 1.83096 168.537 2.40648ZM152.345 6.40773C149.422 6.42157 146.503 6.61463 143.604 6.98583C141.384 4.72995 139.216 3.20148 137.099 2.40042C142.161 1.82856 147.251 1.53554 152.345 1.52269V6.40773ZM134.575 2.71823C137.093 2.96641 139.739 4.44645 142.493 7.13716C139.883 7.51546 137.301 8.06446 134.763 8.78064C130.029 6.72251 125.435 5.56329 121.013 5.31208C125.48 4.18749 130.008 3.32143 134.575 2.71823ZM133.398 9.18924C131.263 9.85126 129.182 10.6738 127.172 11.6499C125.759 11.3775 124.359 11.1404 122.971 10.9387C117.314 10.1049 111.577 9.95759 105.885 10.4998C109.723 8.79378 113.675 7.35965 117.714 6.20797C122.78 5.96887 128.04 7.01307 133.398 9.18924ZM122.835 11.8376C123.836 11.9798 124.844 12.1402 125.861 12.3279C124.237 13.196 122.705 14.2262 121.288 15.403C112.497 15.016 103.69 15.6867 95.0589 17.4006L93.703 17.6851C96.6922 15.3813 99.9068 13.3857 103.297 11.7286C109.782 10.8364 116.361 10.8731 122.835 11.8376ZM95.2284 18.2904C103.482 16.648 111.898 15.9715 120.307 16.2747C119.21 17.3045 118.271 18.4906 117.52 19.7947C111.929 20.299 106.371 21.1205 100.873 22.2554C95.7889 23.3027 90.7669 24.6325 85.8306 26.2384C87.5352 23.5011 89.6608 21.0497 92.1291 18.9744C93.1602 18.7303 94.1963 18.5023 95.2375 18.2904H95.2284ZM101.052 23.1331C106.332 22.0434 111.668 21.2442 117.036 20.739C116.489 21.9343 116.181 23.2244 116.128 24.5375C104.716 26.9933 93.5934 30.6403 82.9432 35.4183C83.0776 32.6181 83.8378 29.8837 85.1678 27.4158C90.3757 25.6772 95.6828 24.2512 101.061 23.1452L101.052 23.1331ZM116.146 25.4757C116.23 26.8184 116.576 28.1315 117.166 29.3408C108.711 32.3681 100.494 36.0224 92.5831 40.2731C90.0286 41.6472 87.5114 43.0818 85.0316 44.577C83.7169 42.0555 82.9983 39.266 82.931 36.4232C93.5862 31.6146 104.72 27.9451 116.146 25.4757ZM32.4462 94.7077C35.14 99.5201 38.9778 104.148 43.9325 108.543C44.0717 108.667 44.22 108.791 44.3622 108.915C38.618 118.902 33.821 129.405 30.034 140.286C24.25 135.205 19.7433 129.744 16.6228 124.009C20.7949 113.686 26.102 103.858 32.4462 94.7077ZM45.0493 109.517C50.3732 114.057 56.7564 118.189 64.1173 121.887C59.4174 132.628 55.5166 143.702 52.4465 155.017C44.0202 150.78 36.7472 146.055 30.7695 140.931C34.535 130.036 39.3159 119.518 45.0493 109.517ZM52.1922 155.907C49.7093 165.171 47.8658 174.595 46.6746 184.112C46.4829 185.66 46.3134 187.2 46.1661 188.731C37.2829 184.252 29.5467 179.221 23.1635 173.74C24.3329 164.122 26.3908 154.633 29.3106 145.395C29.6799 144.211 30.0653 143.029 30.4668 141.851C36.4808 146.966 43.7751 151.688 52.2043 155.907H52.1922ZM46.1389 221.362C47.1437 230.835 49.0778 239.709 51.9229 247.781C44.9161 244.219 38.6903 240.299 33.33 236.059C32.4039 235.327 31.514 234.585 30.6454 233.841C27.9827 227.535 25.9549 220.98 24.5921 214.273C24.0775 211.781 23.6477 209.259 23.3027 206.706C29.6133 211.997 37.2768 216.924 46.151 221.362H46.1389ZM53.5603 249.609C56.9219 251.25 60.453 252.809 64.1536 254.286C69.6985 256.501 75.5611 258.496 81.675 260.26C82.5406 263.447 83.5182 266.477 84.6018 269.34C85.9659 272.976 87.625 276.493 89.5625 279.858C81.1384 277.426 72.9425 274.264 65.0677 270.409C60.4338 264.467 56.5688 257.497 53.5724 249.609H53.5603ZM91.5328 281.353C100.946 283.969 110.531 285.925 120.217 287.207C121.824 291.925 123.676 295.612 125.737 298.215C118.007 297.155 110.361 295.553 102.856 293.42C98.6213 290.566 94.8349 286.517 91.5449 281.353H91.5328ZM185.378 287.204C195.076 285.92 204.673 283.96 214.098 281.338C210.868 286.432 207.097 290.503 202.802 293.396C195.282 295.535 187.621 297.143 179.875 298.209C181.951 295.603 183.795 291.916 185.39 287.204H185.378ZM216.068 279.834L216.286 279.455C219.391 274.007 221.946 267.576 223.928 260.254C230.033 258.493 235.89 256.498 241.428 254.286C245.137 252.805 248.677 251.24 252.049 249.591C250.6 253.431 248.881 257.163 246.904 260.76C245.062 264.113 242.959 267.316 240.614 270.339C232.729 274.213 224.519 277.39 216.08 279.834H216.068ZM272.243 236.059C266.892 240.296 260.675 244.207 253.68 247.763C256.501 239.749 258.429 230.923 259.431 221.359C268.317 216.915 275.978 211.976 282.304 206.67C281.306 214.208 279.512 221.62 276.952 228.78C276.347 230.475 275.696 232.139 275 233.771C274.129 234.54 273.209 235.305 272.255 236.059H272.243ZM259.437 188.716C258.336 177.625 256.326 166.644 253.426 155.883C261.849 151.664 269.138 146.942 275.152 141.827C278.672 152.182 281.106 162.875 282.416 173.734C276.054 179.209 268.323 184.24 259.449 188.716H259.437ZM253.187 154.99C250.107 143.682 246.194 132.617 241.48 121.887C248.862 118.179 255.254 114.033 260.584 109.478C264.131 115.673 267.319 122.067 270.133 128.628C271.883 132.708 273.46 136.797 274.864 140.895C268.88 146.031 261.616 150.759 253.199 154.99H253.187ZM270.942 128.283C268.089 121.635 264.856 115.159 261.256 108.885L261.653 108.543C266.619 104.139 270.463 99.4989 273.154 94.6744C279.495 103.834 284.797 113.671 288.962 124.003C285.857 129.732 281.347 135.201 275.572 140.265C274.198 136.264 272.659 132.27 270.954 128.283H270.942ZM294.247 99.6745C297.211 107.623 299.493 115.809 301.066 124.145C299.476 117.854 297.374 111.703 294.78 105.755C294.777 103.717 294.598 101.682 294.247 99.6745ZM276.859 76.4509C270.003 68.0542 262.199 60.4795 253.602 53.878C253.548 49.9378 252.637 46.0566 250.932 42.5038C259.016 48.0148 266.342 54.5617 272.724 61.9773C275.261 66.705 276.647 71.5658 276.859 76.4509ZM252.679 53.1667C245.152 47.472 237.115 42.4841 228.671 38.2664C226.992 37.425 225.294 36.6179 223.577 35.8451C223.519 33.0819 222.869 30.3634 221.67 27.8729C227.281 29.8075 232.748 32.1336 238.033 34.8342C241.94 36.8374 245.734 39.0542 249.398 41.4747C251.369 45.0707 252.491 49.0701 252.679 53.1667ZM234.979 25.9418C228.312 22.5328 221.26 19.9375 213.974 18.2117C211.289 15.9471 208.382 13.9606 205.296 12.2825C210.438 13.2632 215.423 14.9402 220.112 17.2674L220.127 17.2341C223.117 18.7253 226.05 20.3122 228.925 21.9951V22.0193C231.08 23.2804 233.097 24.5879 234.976 25.9418H234.979ZM202.696 10.9144C199.665 9.41061 196.544 8.09652 193.35 6.97978C193.746 7.0736 194.137 7.17348 194.527 7.28244V7.24007C199.289 8.60812 203.986 10.2163 208.616 12.0646C206.681 11.5924 204.708 11.209 202.696 10.9144ZM111.07 7.31573C111.46 7.20072 111.854 7.10084 112.247 7.01307C109.102 8.11209 106.026 9.40079 103.037 10.8721C101.054 11.1606 99.1046 11.543 97.1897 12.0192C101.748 10.2032 106.371 8.62427 111.058 7.28244L111.07 7.31573ZM85.4855 17.2614C90.2081 14.9095 95.2291 13.2121 100.41 12.2159C97.3147 13.892 94.3972 15.8776 91.7023 18.1421C84.4642 19.8387 77.4572 22.4027 70.8335 25.7784C72.6495 24.483 74.6007 23.2249 76.687 22.0041V21.9799C79.5624 20.2971 82.4952 18.7101 85.4855 17.219V17.2614ZM66.236 29.3892C73.7167 24.9195 81.808 21.5621 90.2556 19.4224C87.9747 21.5257 86.0418 23.9775 84.5291 26.6864C74.9338 29.9035 65.7645 34.2737 57.2225 39.7011C59.4229 36.1024 62.4375 32.6489 66.236 29.3892ZM83.9571 27.8335C82.7509 30.3314 82.0965 33.0597 82.0382 35.833C80.3251 36.6159 78.6271 37.423 76.9443 38.2543C68.4931 42.4737 60.4502 47.4657 52.9186 53.1667C53.1109 49.0407 54.2501 45.0142 56.248 41.399C64.8754 35.7363 74.1794 31.1789 83.942 27.8335H83.9571ZM52.0106 53.878C43.4132 60.4795 35.6089 68.0542 28.7537 76.4509C28.9686 71.5083 30.3881 66.59 32.9759 61.8078C39.0415 54.7604 45.9729 48.5072 53.6057 43.1969L54.7165 42.4311C52.9905 46.0038 52.067 49.9107 52.0106 53.878ZM10.848 105.755C8.24334 111.702 6.13071 117.853 4.53131 124.145C6.10461 115.809 8.3859 107.623 11.3504 99.6745C10.9988 101.682 10.8206 103.717 10.8177 105.755H10.848ZM10.9145 107.919C11.214 112.413 12.3042 116.819 14.1349 120.934C14.595 121.987 15.0994 123.032 15.6482 124.069C11.7286 133.816 8.97147 143.99 7.43388 154.381C4.52525 148.561 3.03613 142.577 3.02403 136.551C4.414 126.711 7.05547 117.089 10.8843 107.919H10.9145ZM16.2203 125.108C19.4195 130.783 23.9716 136.182 29.7465 141.212C29.3046 142.514 28.8788 143.818 28.4692 145.126C25.5922 154.221 23.5439 163.558 22.3493 173.023C21.4191 172.201 20.5192 171.373 19.6495 170.538C14.7493 165.81 10.9085 160.852 8.14817 155.774C9.59165 145.267 12.2916 134.971 16.19 125.108H16.2203ZM22.3039 205.817C22.6772 208.74 23.1544 211.621 23.7355 214.458C24.9916 220.614 26.8008 226.644 29.1411 232.476C23.7325 227.575 19.5315 222.382 16.6077 216.961C12.7482 208.334 10.0383 199.238 8.54769 189.905C11.8619 195.468 16.4806 200.804 22.2736 205.817H22.3039ZM9.97628 200.974C7.94802 195.037 6.29721 188.978 5.03374 182.832C5.69657 184.498 6.45345 186.125 7.30071 187.705C7.90905 192.179 8.79045 196.611 9.93996 200.977L9.97628 200.974ZM29.9523 234.388C32.751 240.987 36.3059 247.238 40.5456 253.018C39.9675 252.412 39.4015 251.786 38.8598 251.162C31.5562 242.769 25.2095 233.589 19.937 223.792C22.872 227.674 26.2177 231.228 29.916 234.391L29.9523 234.388ZM49.3986 261.958C54.1645 265.432 59.2206 268.489 64.5108 271.096C67.422 274.838 70.7416 278.244 74.408 281.25C67.2676 276.906 60.5026 271.972 54.1838 266.501C52.5151 265.051 50.9049 263.537 49.3532 261.961L49.3986 261.958ZM102.471 294.244C102.844 294.492 103.22 294.732 103.597 294.964C101.557 294.258 99.5293 293.509 97.5135 292.718C99.1399 293.255 100.792 293.763 102.471 294.244ZM105.801 295.152C112.652 296.939 119.607 298.301 126.627 299.229C127.338 300.01 128.14 300.704 129.015 301.296C122.95 300.338 116.95 299.005 111.049 297.307V297.264C109.237 296.745 107.481 296.044 105.81 295.173L105.801 295.152ZM128.044 299.413C136.102 300.425 144.214 300.939 152.336 300.951V303.148C145.806 303.133 139.284 302.697 132.811 301.844V301.823C131.137 301.62 129.545 300.803 128.053 299.434L128.044 299.413ZM153.244 300.951C161.37 300.937 169.488 300.424 177.551 299.413C176.037 300.79 174.454 301.599 172.766 301.835V301.856C166.292 302.709 159.77 303.145 153.241 303.16L153.244 300.951ZM178.994 299.223C186.025 298.3 192.99 296.941 199.851 295.152C198.152 296.035 196.369 296.745 194.527 297.27V297.313C188.639 299.008 182.652 300.338 176.6 301.296C177.481 300.711 178.288 300.022 179.004 299.244L178.994 299.223ZM203.208 294.195C204.85 293.723 206.464 293.226 208.05 292.703C206.075 293.482 204.084 294.217 202.079 294.91C202.487 294.701 202.86 294.465 203.232 294.216L203.208 294.195ZM241.217 271.023C246.487 268.419 251.525 265.368 256.274 261.904C254.702 263.484 253.07 265.007 251.377 266.474C245.122 271.888 238.43 276.777 231.371 281.09C235.027 278.122 238.338 274.752 241.241 271.044L241.217 271.023ZM266.747 251.144C266.277 251.683 265.79 252.215 265.294 252.745C269.482 247.023 272.991 240.833 275.751 234.301C279.425 231.157 282.751 227.629 285.672 223.777C280.4 233.574 274.053 242.754 266.75 251.147L266.747 251.144ZM289.083 216.773C286.172 222.221 281.968 227.454 276.541 232.385C276.979 231.293 277.399 230.183 277.803 229.055C280.497 221.514 282.352 213.698 283.333 205.75C289.156 200.708 293.787 195.338 297.131 189.739C295.662 199.072 292.964 208.169 289.108 216.794L289.083 216.773ZM298.378 187.548C299.195 186.011 299.926 184.431 300.57 182.814C299.349 188.756 297.767 194.619 295.833 200.369C296.943 196.157 297.801 191.883 298.402 187.569L298.378 187.548ZM285.921 170.517C285.055 171.352 284.158 172.177 283.23 172.992C281.88 162.16 279.417 151.495 275.881 141.167C281.632 136.143 286.196 130.746 289.389 125.074C293.3 134.929 296.014 145.218 297.473 155.719C294.713 160.825 290.863 165.795 285.945 170.538L285.921 170.517ZM289.955 124.036C290.502 123.001 291.006 121.959 291.468 120.91C293.299 116.795 294.389 112.389 294.689 107.895C298.521 117.065 301.165 126.687 302.558 136.527C302.558 142.532 301.066 148.501 298.172 154.306C296.634 143.937 293.884 133.785 289.979 124.057L289.955 124.036ZM266.75 53.3967C267.935 54.7594 269.047 56.185 270.079 57.6674C264.081 51.3003 257.368 45.6474 250.073 40.8209C248.303 37.6115 246.103 34.6586 243.535 32.0436C246.266 33.8937 248.888 35.9007 251.386 38.0546C254.159 40.4537 256.851 42.9608 259.464 45.5758C262.003 48.1162 264.439 50.7302 266.774 53.4179L266.75 53.3967ZM46.1117 45.6061C48.7227 42.983 51.4154 40.4759 54.1898 38.0848C56.7091 35.9086 59.3517 33.8794 62.1046 32.0073C59.5315 34.6152 57.3251 37.5609 55.5458 40.7634C54.7104 41.3143 53.8841 41.8752 53.0669 42.4463C46.7819 46.8233 40.9616 51.8323 35.6969 57.395C36.6432 56.0552 37.6844 54.7285 38.8204 53.4149C41.157 50.7292 43.5874 48.1263 46.1117 45.6061ZM2.44291 141.452C3.14624 146.532 4.76333 151.442 7.21596 155.946C7.10397 156.791 7.00107 157.638 6.91329 158.483C5.9239 167.294 5.92897 176.189 6.92842 184.999C5.17048 181.288 3.97691 177.335 3.38723 173.271H3.36301C2.39934 166.32 1.91696 159.311 1.91929 152.293C1.91929 148.661 2.09383 145.047 2.44291 141.452ZM302.237 173.277H302.213C301.634 177.285 300.464 181.186 298.741 184.851C299.115 181.568 299.344 178.245 299.429 174.881C299.587 168.537 299.245 162.191 298.405 155.901C300.845 151.411 302.453 146.519 303.154 141.458C303.503 145.049 303.678 148.661 303.678 152.293C303.682 159.313 303.2 166.324 302.237 173.277Z" />
</svg>
